<svg id="Layer_1" data-name="Layer 1" xmlns="http://www.w3.org/2000/svg" viewBox="0 0 395.57 500">
  <title>dc2dc-now-icon</title>
  <path id="ri-map" d="M205.32,490.1c1.95,1.58,1.4,3.58,1,5.36-.25,1.05-1.46,2.56-2.37,2.67-7,.84-14,1.82-21,1.87-5.28,0-7.5-4-6-9.05a25.71,25.71,0,0,0,.61-3.36c.47-3.24,1.34-6.27,4.52-7.93,2-1,3.16-2.43,2.87-4.81,0-.43.34-.91.79-2a28.43,28.43,0,0,0,1.21,2.78,21,21,0,0,0,2.9,4.48c.75.74,2.27.71,3.44,1a24.41,24.41,0,0,0,.77-4.71,4.39,4.39,0,0,0-1.37-3c-1-.82-2.47-1.09-4.21-1.78,4.5-4.81,3.65-11.46,4.06-18.26,2.66,1.83,5,3.09,6.9,4.82,3.28,3,3.28,7.89-.28,11.85-2.7,3-2.59,11.46.41,14.65a59.39,59.39,0,0,0,5.82,5.39m190.24-217h-9.34q.63,10.92,1.29,21.83a3.36,3.36,0,0,1-2.33,3.83c-3,1.32-4.89,3.53-4.69,7.23.16,3.09-2,4.87-4.49,6.33-2.64,1.54-5.26,3.12-7.76,4.87a3.16,3.16,0,0,0-.8,2.38c.07,2.3-1.17,3.15-3.19,3.4-1.31.16-2.61.41-3.93.53-1.14.11-3,.53-3.29,0a8.34,8.34,0,0,1-1.08-4.39c.1-3.15.6-6.28.89-9.43a3.77,3.77,0,0,0-2.43-4.23,4,4,0,0,1-2.46-5c.7-3.3.05-6.32-1-9.55-1-3-.8-6.42-.77-9.65,0-2.43.44-4.61-2.15-6.28-.49-.32-.64-1.08-.79-1.91h-9.08c0,.86,0,1.71.07,2.57a6.17,6.17,0,0,0,.84,3.5c1.78,2.15,1.71,4.44.94,6.75-1,3-2.38,5.88-3.49,8.85a73.33,73.33,0,0,0-2.75,8.24,4.57,4.57,0,0,0,2.14,5.25c.65.41,1.64,1.53,1.53,1.7a8.12,8.12,0,0,1-2.5,2.59c-.46.27-1.63-.26-2.22-.74-1.57-1.26-3-2.72-4.48-4.05-1.9-1.67-3.43-1.51-5.05.62-2.6,3.42-3.74,3.18-5.78-.67-.72-1.36-1-3.71-3.26-3s-2.52,2.57-2.14,4.77c.8,4.66-1.07,8.77-3,12.85a19.49,19.49,0,0,0-1.29,3.41c-.44,1.69-1.22,2.06-2.6.92-.14-.11-.25-.25-.38-.37-3.2-2.89-3.18-2.87-6.39.06a3.87,3.87,0,0,1-2,1.12c-2.69.19-5.4.29-8.09.22-2.5-.06-3.5-2.17-4-4.05-.26-1.11.59-2.78,1.43-3.79,1.89-2.28,4.07-4.34,6.19-6.43a25.53,25.53,0,0,1,2.36-1.88c.5.79,1,1.56,1.49,2.37.34.59.6,1.23,1,2.06,1.89-1.11,4.23-1.68,4.87-3,.8-1.71.25-4.07.16-6.14,0-.44-.86-.86-.85-1.28.11-4.71-2.19-8.74-3.38-13.09-.94-3.43.79-4.72,4.28-3.94,2.22.5,3.59-.32,3.74-2.48.24-3.38.09-6.78.28-10.16a12.12,12.12,0,0,1,.51-2.71H283.48c0,.21,0,.42,0,.63,0,3.32.46,6.64.71,10,.1,1.31.51,2.72.19,3.93-.71,2.69-1,5.09,1,7.45.44.52,0,2-.37,2.94-.6,1.36-1.58,2.55-2.29,3.87a3.81,3.81,0,0,0,.39,4.64,56.07,56.07,0,0,1,3.74,6.4c-2.6.19-4.79.91-6.56.32-1.6-.53-2.73-2.48-4.71-4.44.94,7.81-1.88,13.69-6.88,19a5,5,0,0,1-.9-5.71,15.24,15.24,0,0,0,.49-9.57c-.42-1.77-.09-3.71-.29-5.55-.27-2.53.91-3.45,3.23-3.15,1.48.19,2.78.07,3-1.66s2.5-3.5,0-5.71c-1.38-1.21-2.18-3.63-2.35-5.59-.41-4.66-.27-9.33,1.83-13.75a9.35,9.35,0,0,0,.61-4H257.17a32.82,32.82,0,0,1,4,18.49c-.11,1.83,0,3.68.05,5.51.06,1.51.27,2.91-2.1,2.62-.52-.06-1.79,1.26-1.71,1.79a42.78,42.78,0,0,0,2,9c1,2.53.63,4.38-1.43,5.79a5.13,5.13,0,0,0-2.23,4.19,71.31,71.31,0,0,1-1.71,9.1,4.87,4.87,0,0,1-2,2.29c-1.42,1-3,1.83-4.5,2.75a5.8,5.8,0,0,0-2.92,5.8c.19,3.07.23,6.15.19,9.22,0,2.45-.31,4.68-2.74,6.36-1.28.89-1.68,3-2.63,4.44-1.55,2.37-3.22,4.65-4.85,7a12.54,12.54,0,0,0-2.32,9.79,6.54,6.54,0,0,1-.51,2.35,11.06,11.06,0,0,1-2.27-1c-2.83-2.09-5.48-4.45-8.43-6.34a9.76,9.76,0,0,0-9.87-.56,21.24,21.24,0,0,1-5.81,1.59c-5.41.79-10.92,1-16.25,2.16-13.85,2.91-27.08,8-40.42,12.54-3.88,1.33-7.35,3.83-11,5.71a17.27,17.27,0,0,1-4.39,1.75c-7.62,1.48-15.25,2.91-22.91,4.16-2.13.34-4.37,0-6.56,0a13.35,13.35,0,0,0-4.16.27c-8.82,3.11-17.59,6.38-26.4,9.53a12,12,0,0,1-3.15.24c.11-1.49-.38-3.56.42-4.36,2.9-2.94,4.38-7.34,8.87-8.75.69-.22,1.4-1.73,1.37-2.61-.17-4.27.18-8.49-1-12.84-.91-3.43,0-7.53.8-11.19.74-3.49,1-6.36-1.87-9.16-2.29-2.21-2.13-5.29-1-8.19a2.29,2.29,0,0,1,1-1c5.48-3.08,10.88-6.67,17.54-3.11.13.07.34,0,.87-.09.17-3.77.44-7.6.51-11.44.28-16.18.49-32.36.76-48.54.08-5,.2-10.1.3-15.15H0V110.67H97.4Q96.53,77.34,95.64,44c-.31-11.93-.58-23.86-1-35.79-.07-2,.48-2.82,2.62-2.87,11-.26,22.09-.65,33.14-1l72.91-2.18q24.79-.75,49.58-1.53C260,.43,267.07.3,274.13,0c1.94-.08,2.65.43,2.64,2.47-.09,12.72-.08,25.43-.09,38.15,0,9.81.09,19.61,0,29.42,0,2.47.86,3,3.16,2.68,4.53-.69,9.09-1.16,13.78-1.73a13.66,13.66,0,0,1,.32,1.72c.27,8,.57,16,.77,24.06a44.28,44.28,0,0,1-.44,5.2q-.34,3.49-.7,7a9.38,9.38,0,0,1-.25,1.72H395.57ZM277.09,95a28.35,28.35,0,0,1-3.22,15.68h3.71c.53-.78,1.06-1.56,1.57-2.35a5.25,5.25,0,0,0,1.14-2.82c-.4-4.36-1.05-8.7-1.61-13l-1-.11a8.41,8.41,0,0,0-.63,2.65m-261,162h363.4V126.75H16.08Z" fill="#0093d3"/>
  <path id="now" d="M90.56,148.23h23.88v87.32H91.16L68,204c-4.82-6.51-9-12.42-13.39-18.7l-.24.12c.12,7.36.24,14.84.24,22.19v28H30.73V148.23H54l23.16,31.6c4.83,6.51,9,12.43,13.39,18.69l.24-.12c-.12-7.36-.24-14.83-.24-22.19Zm81.29-1.33c26.3,0,46.68,19.78,46.68,45s-20.38,45-46.68,45-46.68-19.78-46.68-45,20.38-45,46.68-45m0,67.66c12.3,0,21.83-10,21.83-22.67s-9.53-22.67-21.83-22.67S150,179.22,150,191.89s9.53,22.67,21.83,22.67M323.1,148.23l-8.68,30.39c-2.17,7.6-4.34,15.44-6.39,23.16h-.24c-1.93-7.48-4.1-15.2-6.27-22.79l-8.8-30.76H274.49l-9,30.88c-2.17,7.36-4.46,15.44-6.39,22.67h-.24c-1.81-7.24-3.86-15.08-5.91-22.55l-8.44-31H218.41l26.3,87.32h25.69l6-20.75c2.17-7.48,4.34-15.32,6.39-23h.24c1.93,7.6,4,15,6.15,22.67l6,21.11h26.29l26.66-87.32Zm32.73,62.84a12.91,12.91,0,1,0,13,12.91,12.94,12.94,0,0,0-13-12.91" fill="#0093d3"/>
</svg>
