<svg xmlns="http://www.w3.org/2000/svg" viewBox="0 0 826.52 515.67"><g id="stacked-dark"><path id="for-congrress" d="M168.51 187h23.85v8.56h-13.72v5.21h11.55v8.06h-11.55v13.77h-10.13zm56.15-.54c-10.72 0-19 8.06-19 18.34s8.31 18.34 19 18.34 19-8.06 19-18.34-8.31-18.34-19-18.34m0 27.58a9.25 9.25 0 118.9-9.24 9 9 0 01-8.9 9.24m33.24 8.56H268V209h1.57l7.92 13.52H289l-9.44-14.95c4.43-1.87 6.54-5.21 6.54-9.59a9.71 9.71 0 00-5.75-9.29c-2.46-1.23-5.66-1.77-10-1.77H257.9zm10.1-20.49V195h1.87a10.27 10.27 0 014.33.59 3.42 3.42 0 01.29 5.75 7.91 7.91 0 01-4 .74zm83.1 8.9a19.06 19.06 0 01-9.93 3.1c-6.49 0-10.23-4.23-10.23-9.39 0-5.41 4-9.29 10-9.29a19 19 0 019.64 3v-9.93a24.38 24.38 0 00-9.83-2c-11.65 0-20 7.87-20 18.39 0 10.33 8 18.29 20 18.29a25.06 25.06 0 0010.38-2.18zm32.11-24.58c-10.72 0-19 8.06-19 18.34s8.31 18.34 19 18.34 19-8.06 19-18.34-8.31-18.34-19-18.34m0 27.58a9.25 9.25 0 118.9-9.24 9 9 0 01-8.9 9.24m57.88 8.56h9.49V187h-9.74v11.41c0 3 0 6 .1 9h-.1c-1.77-2.56-3.49-5-5.46-7.62L426 187h-9.49v35.6h9.74v-11.44c0-3 0-6-.1-9h.1c1.77 2.56 3.49 5 5.46 7.62zm55.81-19.47h-14.63v7.43h4.87v3.78a9.34 9.34 0 01-2.16.25c-6.24 0-10-4.33-10-9.59s3.88-9.54 10.23-9.54a21.19 21.19 0 0110.57 3.29v-9.79a24.89 24.89 0 00-11-2.51c-11.55 0-20 8-20 18.54 0 10.38 8.06 18.14 20.16 18.14a28.83 28.83 0 0011.95-2.56zm15.2 19.47h10.13V209h1.57l7.92 13.52h11.46l-9.44-14.95c4.43-1.87 6.54-5.21 6.54-9.59a9.71 9.71 0 00-5.75-9.29c-2.46-1.23-5.66-1.77-10-1.77h-12.41zm10.13-20.46V195h1.87a10.27 10.27 0 014.33.59 3.42 3.42 0 01.29 5.75 7.91 7.91 0 01-4 .74zm32.6 20.45h23.8V214H565v-5.9h11V200h-11v-4.52h13.08V187h-23.23zm38.06-2a29 29 0 0011.8 2.56c8.26 0 13.92-4.38 13.92-11.56 0-6-3.89-8.75-9.44-10.72-4.33-1.52-7.08-1.52-7.08-3.84 0-1.57 1.28-2.16 3.15-2.16a26.85 26.85 0 0111.51 3.54V189a27.94 27.94 0 00-11.6-2.61c-8 0-13.33 4.38-13.33 11.31 0 5.75 3.74 8.41 9.15 10.28 4.52 1.57 7.38 1.57 7.38 4.13 0 1.82-1.47 2.56-3.54 2.56a27.27 27.27 0 01-11.9-3.64zm39.39 0a29 29 0 0011.8 2.56c8.26 0 13.92-4.38 13.92-11.56 0-6-3.89-8.75-9.44-10.72-4.33-1.52-7.08-1.52-7.08-3.84 0-1.57 1.28-2.16 3.15-2.16a26.85 26.85 0 0111.51 3.54V189a27.94 27.94 0 00-11.6-2.61c-8 0-13.32 4.38-13.32 11.31 0 5.75 3.74 8.41 9.15 10.28 4.52 1.57 7.38 1.57 7.38 4.13 0 1.82-1.47 2.56-3.54 2.56a27.27 27.27 0 01-11.9-3.64z" fill="#491d64"/><path id="conley" d="M0 74.67C0 29.21 30.38.24 77.73.24c17.19 0 36.51 5.18 45.93 12.48l-3.06 33.45c-8-8-24.5-13.9-38.86-13.9-23.08 0-38.86 17.19-38.86 42.4 0 25.44 15.78 42.4 39.57 42.4 12 0 26.62-5.65 35.09-13.43l15.31 25.91c-16.49 13.9-33.21 20-54.65 20C30.86 149.57 0 120.13 0 74.67m441.17 74.43V1.88h-42.4v69.49L307.15.71v147.21h42.4V78.2zm24.73-1.18h87.39l7.54-32.27H508.3V1.88h-42.4zm107.88 0h101l7.54-32.27h-66.14v-29h34.62V54.41h-34.62V33.92h47.34v-32h-89.74zm175.48-87.39L718.4 1.88h-46.63c16.25 26.38 39.57 66.89 56.3 94v52.06h42.4v-53l56.06-93h-47.12zm-535.66 89c43.57 0 78.43-27.32 78.43-74.67C292 27.32 257.17 0 213.6 0s-78.2 27.32-78.2 74.67c0 47.58 34.62 74.9 78.2 74.9m0-117.3c19.55 0 35.33 15.78 35.33 42.63 0 27.09-15.78 42.16-35.33 42.16-19.32 0-35.33-15.07-35.33-42.4 0-26.62 16-42.4 35.33-42.4" fill="#491d64"/><path id="lines" d="M133.94 210.62H0v-11.71h133.94zm692.58-11.71H692.58v11.71h133.94z" fill="#0094d4"/><path d="M443.61 360.68a10.86 10.86 0 01-1.23 6h1.42l.6-.9a2 2 0 00.44-1.08c-.15-1.67-.4-3.33-.62-5h-.37a3.22 3.22 0 00-.24 1" fill="#491d64"/><path id="ri-map" d="M416.14 511.88c.74.6.54 1.37.38 2.05-.09.4-.56 1-.91 1a72 72 0 01-8 .72c-2 0-2.87-1.51-2.31-3.46a9.84 9.84 0 00.23-1.28 3.62 3.62 0 011.73-3 1.71 1.71 0 001.1-1.84c0-.16.13-.35.3-.77a10.88 10.88 0 00.46 1.06 8 8 0 001.11 1.71c.29.28.87.27 1.32.39a9.34 9.34 0 00.29-1.8 1.68 1.68 0 00-.52-1.14 6.58 6.58 0 00-1.61-.68c1.72-1.84 1.4-4.38 1.55-7a25.9 25.9 0 012.64 1.85c1.25 1.13 1.25 3-.11 4.54-1 1.16-1 4.39.16 5.61a22.51 22.51 0 002.23 2.06m72.8-83h-3.58q.24 4.18.49 8.36a1.28 1.28 0 01-.89 1.47 2.66 2.66 0 00-1.8 2.77c.06 1.18-.77 1.87-1.72 2.42s-2 1.19-3 1.86a1.21 1.21 0 00-.3.91c0 .88-.45 1.21-1.22 1.3-.5.06-1 .15-1.5.2s-1.15.2-1.26 0a3.19 3.19 0 01-.42-1.68c0-1.21.23-2.4.34-3.61a1.44 1.44 0 00-.93-1.62 1.54 1.54 0 01-.94-1.91 6.8 6.8 0 00-.39-3.65 11.57 11.57 0 01-.29-3.69c0-.93.17-1.77-.82-2.4-.19-.12-.25-.42-.3-.73H467v1a2.35 2.35 0 00.32 1.34 2.5 2.5 0 01.36 2.58c-.38 1.15-.91 2.25-1.33 3.39a27.86 27.86 0 00-1.05 3.15 1.75 1.75 0 00.82 2c.25.15.63.58.59.65a3.09 3.09 0 01-1 1c-.18.1-.62-.1-.85-.28-.6-.48-1.14-1-1.72-1.55s-1.31-.58-1.93.24c-1 1.31-1.43 1.22-2.21-.26-.27-.52-.37-1.42-1.25-1.16s-1 1-.82 1.83c.31 1.79-.41 3.36-1.15 4.92a7.54 7.54 0 00-.49 1.3c-.17.65-.47.79-1 .35l-.15-.14c-1.22-1.11-1.22-1.1-2.45 0a1.48 1.48 0 01-.78.43c-1 .07-2.07.11-3.1.08s-1.34-.83-1.51-1.55a2 2 0 01.55-1.45c.73-.87 1.56-1.66 2.37-2.46a9.9 9.9 0 01.9-.72c.19.3.39.6.57.91s.23.47.38.79c.72-.42 1.62-.64 1.86-1.16a5.42 5.42 0 00.06-2.35c0-.17-.33-.33-.33-.49 0-1.8-.84-3.35-1.29-5-.36-1.31.3-1.81 1.64-1.51.85.19 1.37-.12 1.43-.95.09-1.29 0-2.59.11-3.89a4.69 4.69 0 01.2-1H446v.24c0 1.27.18 2.54.27 3.81a4.85 4.85 0 01.07 1.5 2.84 2.84 0 00.38 2.85c.17.2 0 .78-.14 1.13-.23.52-.6 1-.88 1.48a1.46 1.46 0 00.15 1.77 21.59 21.59 0 011.43 2.45 7.47 7.47 0 01-2.51.12c-.61-.2-1-1-1.8-1.7a8.51 8.51 0 01-2.63 7.26 1.91 1.91 0 01-.34-2.18 5.83 5.83 0 00.19-3.66 17.7 17.7 0 01-.11-2.12c-.11-1 .35-1.32 1.24-1.2.57.07 1.06 0 1.16-.63s1-1.34 0-2.18a3.44 3.44 0 01-.9-2.14 9.89 9.89 0 01.7-5.26 3.58 3.58 0 00.23-1.53H436a12.54 12.54 0 011.52 7.08v2.11c0 .7.1 1.11-.8 1-.2 0-.68.48-.66.68a16.31 16.31 0 00.75 3.43 1.64 1.64 0 01-.55 2.21 2 2 0 00-.86 1.6 26.94 26.94 0 01-.65 3.48 1.86 1.86 0 01-.75.88c-.54.39-1.15.7-1.72 1.05a2.22 2.22 0 00-1.12 2.22c.07 1.17.09 2.35.07 3.53a2.61 2.61 0 01-1 2.43c-.49.34-.64 1.14-1 1.7-.59.91-1.23 1.78-1.86 2.67a4.8 4.8 0 00-.89 3.74 2.5 2.5 0 01-.2.9 4.23 4.23 0 01-.87-.38c-1.08-.8-2.1-1.7-3.23-2.42a3.73 3.73 0 00-3.77-.21 8.13 8.13 0 01-2.23.61c-2.07.3-4.18.4-6.22.83a130.67 130.67 0 00-15.47 4.8 34.34 34.34 0 00-4.23 2.19 6.61 6.61 0 01-1.68.67c-2.92.57-5.84 1.11-8.77 1.59a17.21 17.21 0 01-2.51 0 5.11 5.11 0 00-1.59.1c-3.38 1.19-6.73 2.44-10.1 3.65a4.59 4.59 0 01-1.21.09c0-.57-.14-1.36.16-1.67 1.11-1.12 1.67-2.81 3.39-3.35a1.23 1.23 0 00.52-1 21.75 21.75 0 00-.37-4.92 9.74 9.74 0 01.3-4.28c.28-1.34.4-2.43-.72-3.5a2.73 2.73 0 01-.38-3.14.88.88 0 01.37-.4c2.1-1.18 4.16-2.55 6.71-1.19h.33c.07-1.44.17-2.91.19-4.38.11-6.19.19-12.39.29-18.58 0-1.93.07-3.86.12-5.8h-37.74v-62.29h37.27q-.33-12.75-.67-25.51c-.12-4.57-.22-9.13-.37-13.7 0-.78.18-1.08 1-1.1 4.23-.1 8.46-.25 12.68-.38l27.9-.84 19-.59c2.71-.08 5.41-.13 8.12-.24.74 0 1 .16 1 .95v25.86c0 .95.33 1.16 1.21 1 1.73-.26 3.48-.44 5.27-.66a4.89 4.89 0 01.12.66c.11 3.07.22 6.14.29 9.21a16.51 16.51 0 01-.17 2q-.13 1.33-.27 2.67a3.68 3.68 0 01-.09.66h39.13zm-145.22-6.15h139.03v-49.92H343.72z" fill="#491d64"/><path id="now" d="M372.22 391.76c0 2.82 0 5.68.09 8.49h-.09c-1.66-2.4-3.28-4.66-5.12-7.15l-8.86-12.09h-8.91v33.42h9.14v-10.67c0-2.81 0-5.68-.09-8.49h.09c1.66 2.4 3.28 4.66 5.12 7.15l8.86 12.09h8.91v-33.46h-9.14zm31.11-11.22c10.06 0 17.86 7.57 17.86 17.22S413.4 415 403.33 415s-17.86-7.57-17.86-17.22 7.8-17.22 17.86-17.22m0 25.89a8.68 8.68 0 10-8.35-8.68 8.43 8.43 0 008.35 8.68m57.88-25.39l-3.32 11.63c-.83 2.91-1.66 5.91-2.45 8.86h-.09c-.74-2.86-1.57-5.82-2.4-8.72l-3.37-11.77h-7l-3.46 11.82c-.83 2.82-1.71 5.91-2.45 8.68h-.09c-.69-2.77-1.48-5.77-2.26-8.63l-3.23-11.86h-10l10.06 33.42H441l2.31-7.94c.83-2.86 1.66-5.86 2.45-8.82h.09c.74 2.91 1.52 5.72 2.35 8.68l2.31 8.08h10.06l10.2-33.42zm12.53 24a4.94 4.94 0 105 4.94 5 5 0 00-5-4.94" fill="#491d64"/><path id="wave" d="M238.28 68.45l-.06-.26c-1-4.22-6.09-10.09-13.6-12.63-7.1-2.4-18.54-2.8-32.76 8.94a32.11 32.11 0 00-9.51 13.21q-.08-1.51-.08-3c0-8.92 2-17.05 5.85-23.53 18.9-11.57 34.37-5.51 42.78 1.28a20 20 0 017.38 16m-16.55 40.7a22.69 22.69 0 01-13.35-4.32l-.21-.13a15.91 15.91 0 01-3.73-3.5A22.8 22.8 0 01236 68.58c-.91-3.63-5.43-8.65-12.12-10.91a23.59 23.59 0 00-7.59-1.23c-6.14 0-13.95 2.28-23 9.78a30.74 30.74 0 00-10.83 20.07c3.59 17 15.21 27.77 31.16 27.77a30 30 0 0022.76-9.92c.32-.36.61-.75.92-1.13a22.72 22.72 0 01-15.55 6.13" fill="#0094d4"/></g></svg>