<svg id="light" xmlns="http://www.w3.org/2000/svg" viewBox="0 0 827.24 189.01"><path id="ri-map" d="M755.32 185.26c.74.6.53 1.35.37 2-.09.4-.55 1-.9 1a71.15 71.15 0 01-7.94.71c-2 0-2.84-1.49-2.28-3.42a9.72 9.72 0 00.23-1.27 3.57 3.57 0 011.71-3 1.69 1.69 0 001.09-1.82c0-.16.13-.34.3-.76a10.75 10.75 0 00.46 1.05 7.94 7.94 0 001.1 1.69c.28.28.86.27 1.3.38a9.23 9.23 0 00.29-1.78 1.66 1.66 0 00-.52-1.13 6.5 6.5 0 00-1.59-.67c1.7-1.82 1.38-4.33 1.54-6.9a25.58 25.58 0 012.61 1.82c1.24 1.12 1.24 3-.1 4.48-1 1.14-1 4.33.16 5.54a22.23 22.23 0 002.2 2m71.91-82h-3.53q.24 4.13.49 8.25a1.27 1.27 0 01-.88 1.45 2.62 2.62 0 00-1.77 2.73c.06 1.17-.76 1.84-1.7 2.39s-2 1.18-2.93 1.84a1.2 1.2 0 00-.3.9c0 .87-.44 1.19-1.21 1.28-.5.06-1 .15-1.48.2s-1.13.2-1.24 0a3.15 3.15 0 01-.41-1.66c0-1.19.23-2.38.34-3.56a1.42 1.42 0 00-.92-1.6 1.53 1.53 0 01-.93-1.89 6.72 6.72 0 00-.39-3.61 11.43 11.43 0 01-.29-3.65c0-.92.17-1.74-.81-2.38-.18-.12-.24-.41-.3-.72h-3.43v1a2.33 2.33 0 00.31 1.32 2.47 2.47 0 01.35 2.55c-.38 1.13-.9 2.22-1.32 3.35a27.52 27.52 0 00-1 3.12 1.73 1.73 0 00.81 2c.25.15.62.58.58.64a3.06 3.06 0 01-.94 1c-.17.1-.61-.1-.84-.28-.59-.48-1.12-1-1.7-1.53s-1.3-.57-1.91.24c-1 1.29-1.41 1.2-2.18-.25-.27-.51-.37-1.4-1.23-1.15s-1 1-.81 1.8a8.06 8.06 0 01-1.13 4.86 7.45 7.45 0 00-.48 1.29c-.17.64-.46.78-1 .35l-.15-.14c-1.21-1.09-1.2-1.08-2.42 0a1.47 1.47 0 01-.77.42c-1 .07-2 .11-3.06.08s-1.33-.82-1.49-1.53a2 2 0 01.54-1.43c.72-.86 1.54-1.64 2.34-2.43a9.78 9.78 0 01.89-.71c.19.3.39.59.56.89s.23.47.38.78c.71-.42 1.6-.63 1.84-1.15a5.35 5.35 0 00.06-2.32c0-.17-.33-.32-.32-.48 0-1.78-.83-3.31-1.28-4.95-.35-1.3.3-1.78 1.62-1.49.84.19 1.36-.12 1.41-.94.09-1.28 0-2.56.11-3.84a4.64 4.64 0 01.19-1h-8.64v.24c0 1.25.17 2.51.27 3.76a4.79 4.79 0 01.07 1.49 2.8 2.8 0 00.37 2.82c.17.2 0 .77-.14 1.11-.23.51-.6 1-.87 1.46a1.44 1.44 0 00.15 1.75 21.33 21.33 0 011.41 2.42 7.38 7.38 0 01-2.48.12c-.61-.2-1-.94-1.78-1.68a8.4 8.4 0 01-2.6 7.17 1.89 1.89 0 01-.34-2.16 5.76 5.76 0 00.18-3.62 17.48 17.48 0 01-.13-2.1c-.1-1 .34-1.3 1.22-1.19.56.07 1.05 0 1.14-.63s.94-1.32 0-2.16a3.39 3.39 0 01-.89-2.11 9.77 9.77 0 01.69-5.2 3.53 3.53 0 00.23-1.51h-6.47a12.39 12.39 0 011.5 7v2.08c0 .69.1 1.1-.79 1-.2 0-.68.48-.65.68a16.11 16.11 0 00.74 3.39 1.62 1.62 0 01-.54 2.19 1.94 1.94 0 00-.84 1.58 26.61 26.61 0 01-.65 3.44 1.83 1.83 0 01-.74.87c-.54.39-1.13.69-1.7 1a2.19 2.19 0 00-1.11 2.19c.07 1.16.09 2.32.07 3.49a2.58 2.58 0 01-1 2.4c-.48.33-.64 1.13-1 1.68-.59.89-1.22 1.76-1.83 2.63a4.74 4.74 0 00-.88 3.7 2.47 2.47 0 01-.19.89 4.18 4.18 0 01-.86-.38c-1.07-.79-2.07-1.68-3.19-2.4a3.69 3.69 0 00-3.73-.21 8 8 0 01-2.2.6c-2 .3-4.13.39-6.14.82a129.07 129.07 0 00-15.28 4.74 33.93 33.93 0 00-4.17 2.16 6.53 6.53 0 01-1.66.66c-2.88.56-5.77 1.1-8.66 1.57a17 17 0 01-2.48 0 5 5 0 00-1.57.1c-3.33 1.17-6.65 2.41-10 3.6a4.53 4.53 0 01-1.19.09c0-.56-.14-1.34.16-1.65 1.1-1.11 1.65-2.78 3.35-3.31a1.22 1.22 0 00.52-1 21.49 21.49 0 00-.37-4.86 9.63 9.63 0 01.3-4.23c.28-1.32.39-2.4-.71-3.46a2.7 2.7 0 01-.37-3.1.87.87 0 01.36-.39c2.07-1.16 4.11-2.52 6.63-1.18h.33c.07-1.43.17-2.87.19-4.32.11-6.12.19-12.23.29-18.35 0-1.91.07-3.82.11-5.73h-37.26V41.84h36.82l-.66-25.2c-.12-4.51-.22-9-.37-13.53 0-.77.18-1.06 1-1.08 4.18-.1 8.35-.25 12.53-.37l27.55-.84 18.74-.57c2.67-.08 5.35-.13 8-.24.73 0 1 .16 1 .93v25.54c0 .93.32 1.15 1.2 1 1.71-.26 3.44-.44 5.21-.65a4.83 4.83 0 01.12.65c.11 3 .22 6.06.29 9.1a16.31 16.31 0 01-.17 2q-.13 1.32-.27 2.63a3.63 3.63 0 01-.09.65h38.65zm-143.47-6.02h137.37V47.91H683.79z" fill="#0094d4"/><path id="now" d="M711.94 66.61c0 2.78 0 5.61.09 8.39h-.09c-1.64-2.37-3.24-4.6-5.06-7.07L698.13 56h-8.8v33h9V78.46c0-2.78 0-5.61-.09-8.39h.09c1.64 2.37 3.24 4.61 5.06 7.07L712.17 89H721V56h-9zm30.73-11.08c9.94 0 17.64 7.48 17.64 17s-7.7 17-17.64 17S725 82.06 725 72.54s7.7-17 17.64-17m0 25.58a8.58 8.58 0 10-8.25-8.57 8.32 8.32 0 008.25 8.57M799.85 56l-3.28 11.49c-.82 2.87-1.64 5.84-2.42 8.75h-.09c-.73-2.83-1.55-5.74-2.37-8.62L788.36 56h-6.88l-3.43 11.7c-.82 2.78-1.69 5.84-2.42 8.57h-.09c-.68-2.74-1.46-5.7-2.23-8.53L770.12 56h-9.85l9.94 33h9.71l2.28-7.84c.82-2.83 1.64-5.79 2.42-8.71h.09c.73 2.87 1.5 5.65 2.33 8.57l2.28 8h9.94l10.08-33zm12.37 23.75a4.88 4.88 0 104.92 4.88 4.89 4.89 0 00-4.92-4.88" fill="#fff"/><path id="for-congrress" d="M127.12 141h18v6.45h-10.36v3.93h8.72v6.08h-8.72v10.44h-7.64zm42.36-.41c-8.09 0-14.36 6.08-14.36 13.84s6.27 13.84 14.36 13.84 14.36-6.08 14.36-13.84-6.27-13.84-14.36-13.84m0 20.81a7 7 0 116.71-7 6.77 6.77 0 01-6.71 7m25.08 6.45h7.64V157.7h1.19l6 10.2H218l-7.12-11.28a7.8 7.8 0 00.59-14.24 16.8 16.8 0 00-7.53-1.34h-9.39zm7.64-15.43v-5.34h1.41a7.75 7.75 0 013.26.45 2.58 2.58 0 01.22 4.34 6 6 0 01-3 .56zm62.69 6.71a14.38 14.38 0 01-7.49 2.34c-4.9 0-7.72-3.19-7.72-7.08 0-4.08 3-7 7.57-7a14.36 14.36 0 017.27 2.23v-7.49a18.4 18.4 0 00-7.42-1.52c-8.79 0-15.06 5.93-15.06 13.87s6 13.8 15.06 13.8a18.91 18.91 0 007.79-1.6zm24.22-18.55c-8.09 0-14.36 6.08-14.36 13.84s6.27 13.84 14.36 13.84 14.36-6.08 14.36-13.84-6.27-13.84-14.36-13.84m0 20.81a7 7 0 116.71-7 6.77 6.77 0 01-6.71 7m43.66 6.45h7.16V141h-7.34v8.61c0 2.26 0 4.56.07 6.83h-.07c-1.34-1.93-2.63-3.75-4.12-5.75l-7.13-9.69h-7.16v26.9h7.34v-8.61c0-2.26 0-4.56-.07-6.82h.07c1.33 1.93 2.63 3.75 4.12 5.75zm42.1-14.69h-11.06v5.6h3.67v2.86a7 7 0 01-1.63.19c-4.71 0-7.57-3.26-7.57-7.23s2.93-7.2 7.71-7.2a16 16 0 018 2.49v-7.38a18.77 18.77 0 00-8.27-1.89c-8.72 0-15.06 6-15.06 14s6.08 13.69 15.21 13.69a21.75 21.75 0 009-1.93zm11.46 14.69H394V157.7h1.19l6 10.2h8.64l-7.12-11.28a7.8 7.8 0 00.59-14.24 16.8 16.8 0 00-7.53-1.34h-9.38zm7.67-15.37v-5.34h1.41a7.75 7.75 0 013.26.45 2.58 2.58 0 01.22 4.34 6 6 0 01-3 .56zm24.59 15.43h18v-6.45h-10.38V157h8.35v-6.08h-8.35v-3.42h9.87V141h-17.51zm28.71-1.52a21.89 21.89 0 008.9 1.93c6.23 0 10.5-3.3 10.5-8.72 0-4.53-2.93-6.6-7.12-8.09-3.26-1.15-5.34-1.15-5.34-2.89 0-1.19 1-1.63 2.37-1.63a20.26 20.26 0 018.68 2.67v-7a21.08 21.08 0 00-8.75-2c-6 0-10.05 3.3-10.05 8.53 0 4.34 2.82 6.34 6.9 7.75 3.41 1.19 5.56 1.19 5.56 3.12 0 1.37-1.11 1.93-2.67 1.93a20.57 20.57 0 01-9-2.75zm29.71 0a21.9 21.9 0 008.9 1.93c6.23 0 10.5-3.3 10.5-8.72 0-4.53-2.93-6.6-7.12-8.09-3.26-1.15-5.34-1.15-5.34-2.89 0-1.19 1-1.63 2.37-1.63a20.26 20.26 0 018.68 2.67v-7a21.08 21.08 0 00-8.75-2c-6 0-10.05 3.3-10.05 8.53 0 4.34 2.82 6.34 6.9 7.75 3.41 1.19 5.56 1.19 5.56 3.12 0 1.37-1.11 1.93-2.67 1.93a20.57 20.57 0 01-9-2.75z" fill="#fff"/><path id="conley" d="M0 56.33C0 22 22.92.18 58.64.18c13 0 27.54 3.91 34.65 9.42L91 34.83c-6-6-18.48-10.48-29.32-10.48-17.41 0-29.32 13-29.32 32 0 19.19 11.9 32 29.85 32 9.06 0 20.08-4.26 26.47-10.13l11.55 19.55c-12.44 10.48-25.05 15.1-41.22 15.1-35.72 0-59-22.21-59-56.51m332.81 56.15V1.42h-32v52.42L231.71.53v111.06h32V59zm18.66-.89h65.92l5.69-24.34h-39.64V1.42h-32zm81.38 0h76.23l5.69-24.34h-49.95V65.39H491V41h-26.17V25.59h35.72V1.42h-67.7zm132.37-65.95L541.95 1.42h-35.18c12.26 19.9 29.85 50.46 42.47 70.9v39.27h32v-40l42.27-70.17H588zm-404.09 67.16c32.87 0 59.17-20.61 59.17-56.33C220.3 20.61 194 0 161.14 0s-59 20.61-59 56.33c0 35.89 26.12 56.51 59 56.51m0-88.49c14.75 0 26.65 11.9 26.65 32.16 0 20.43-11.9 31.81-26.65 31.81-14.57 0-26.65-11.37-26.65-32 0-20.08 12.08-32 26.65-32" fill="#fff"/><path id="lines" d="M101 158.89H0v-8.84h101zm522.46-8.84h-101v8.84h101z" fill="#0094d4"/><path id="wave" d="M179.75 51.63v-.2c-.74-3.19-4.59-7.61-10.26-9.52-5.35-1.81-14-2.11-24.72 6.74a24.22 24.22 0 00-7.17 10q-.06-1.14-.06-2.29a34.87 34.87 0 014.41-17.75c14.26-8.73 25.93-4.15 32.27 1a15.06 15.06 0 015.57 12.1m-12.49 30.7a17.12 17.12 0 01-10.07-3.26L157 79a12 12 0 01-2.82-2.64 17.2 17.2 0 0123.84-24.6c-.69-2.74-4.1-6.53-9.14-8.23a17.8 17.8 0 00-5.72-.93c-4.63 0-10.52 1.72-17.39 7.38a23.19 23.19 0 00-8.17 15.14c2.71 12.82 11.48 21 23.51 21a22.65 22.65 0 0017.17-7.48c.24-.27.46-.57.69-.85a17.14 17.14 0 01-11.73 4.63" fill="#0094d4"/></svg>