<svg id="Layer_1" data-name="Layer 1" xmlns="http://www.w3.org/2000/svg" viewBox="0 0 512 512"><path fill="#491d64" d="M0 0h512v512H0z"/><path id="ri-map" d="M494.92 338.53h-11.29q.76 13.19 1.56 26.37c.15 2.34-.55 3.64-2.81 4.63-3.65 1.59-5.91 4.26-5.67 8.73.2 3.74-2.43 5.89-5.43 7.64-3.19 1.86-6.35 3.77-9.37 5.89a3.82 3.82 0 00-1 2.87c.09 2.77-1.42 3.81-3.86 4.1-1.58.19-3.16.49-4.74.63-1.37.13-3.63.63-4 .06a10.07 10.07 0 01-1.31-5.3c.13-3.81.72-7.59 1.07-11.39a4.55 4.55 0 00-2.93-5.11c-2.6-1.13-3.55-3.26-3-6 .84-4 .06-7.64-1.24-11.54-1.2-3.6-1-7.75-.93-11.65 0-2.94.54-5.57-2.59-7.59-.59-.38-.78-1.31-1-2.31h-11c0 1 .05 2.07.09 3.11.05 1.44.17 3.22 1 4.23 2.15 2.59 2.06 5.37 1.13 8.15-1.22 3.62-2.87 7.1-4.21 10.69a88.58 88.58 0 00-3.33 10 5.52 5.52 0 002.59 6.34c.79.49 2 1.85 1.85 2a9.81 9.81 0 01-3 3.13c-.56.32-2-.32-2.68-.89-1.89-1.52-3.59-3.28-5.42-4.89-2.29-2-4.14-1.82-6.1.75-3.14 4.14-4.51 3.84-7-.81-.86-1.64-1.18-4.49-3.93-3.67s-3 3.11-2.59 5.76c1 5.63-1.29 10.6-3.61 15.52a23.55 23.55 0 00-1.55 4.12c-.54 2-1.47 2.49-3.14 1.11-.17-.14-.31-.3-.46-.44-3.86-3.49-3.84-3.47-7.72.07a4.67 4.67 0 01-2.46 1.36c-3.25.23-6.52.35-9.78.27-3-.08-4.23-2.62-4.78-4.89-.32-1.34.72-3.35 1.73-4.57 2.29-2.76 4.92-5.24 7.47-7.77a30.84 30.84 0 012.85-2.27c.6 1 1.24 1.88 1.8 2.86.41.72.73 1.49 1.2 2.49 2.28-1.34 5.1-2 5.88-3.67 1-2.06.31-4.91.2-7.42 0-.53-1-1-1-1.54.14-5.69-2.65-10.56-4.08-15.82-1.14-4.14 1-5.7 5.17-4.75 2.68.6 4.33-.38 4.52-3 .29-4.08.11-8.19.34-12.27a14.64 14.64 0 01.62-3.28h-27.46v.76c0 4 .56 8 .86 12 .12 1.59.62 3.29.23 4.75-.86 3.25-1.22 6.15 1.19 9 .54.63 0 2.47-.45 3.55-.72 1.64-1.91 3.08-2.77 4.67a4.6 4.6 0 00.47 5.6c1.61 2 2.68 4.52 4.52 7.73-3.14.23-5.79 1.1-7.92.39-1.93-.64-3.3-3-5.69-5.36 1.14 9.44-2.28 16.53-8.31 22.9-2.27-2.36-1.86-4.95-1.08-6.89a18.41 18.41 0 00.59-11.56c-.5-2.14-.11-4.48-.35-6.7-.33-3.06 1.1-4.17 3.9-3.8 1.79.23 3.35.08 3.66-2s3-4.23 0-6.89c-1.67-1.46-2.63-4.39-2.84-6.75-.5-5.63-.33-11.27 2.22-16.61a11.29 11.29 0 00.74-4.81h-20.74a39.65 39.65 0 014.8 22.33c-.13 2.21 0 4.44.07 6.66.08 1.83.33 3.51-2.53 3.17-.63-.08-2.17 1.52-2.07 2.16a51.68 51.68 0 002.36 10.82c1.17 3.06.76 5.29-1.73 7-1.91 1.3-2.45 2.89-2.7 5.06a86.14 86.14 0 01-2.06 11 5.88 5.88 0 01-2.37 2.77c-1.72 1.24-3.62 2.22-5.44 3.32a7 7 0 00-3.53 7c.22 3.71.27 7.43.23 11.14 0 3-.37 5.65-3.31 7.68-1.55 1.07-2 3.61-3.18 5.37-1.87 2.86-3.9 5.62-5.86 8.42a15.15 15.15 0 00-2.81 11.82c.16.88-.39 1.89-.62 2.84a13.36 13.36 0 01-2.75-1.2c-3.42-2.52-6.62-5.38-10.18-7.65a11.79 11.79 0 00-11.92-.67 25.66 25.66 0 01-7 1.92c-6.53 1-13.19 1.26-19.63 2.61-16.73 3.51-32.71 9.61-48.83 15.14-4.68 1.61-8.87 4.63-13.34 6.9a20.86 20.86 0 01-5.3 2.11c-9.2 1.79-18.43 3.51-27.68 5-2.57.42-5.27 0-7.92 0-1.68 0-3.5-.21-5 .33-10.66 3.75-21.24 7.71-31.89 11.51a14.48 14.48 0 01-3.8.29c.13-1.8-.45-4.3.51-5.27 3.5-3.55 5.29-8.87 10.71-10.57.83-.26 1.7-2.09 1.65-3.16-.21-5.16.21-10.26-1.18-15.52-1.1-4.15 0-9.09 1-13.52.89-4.22 1.26-7.68-2.26-11.06-2.77-2.67-2.58-6.39-1.19-9.9a2.76 2.76 0 011.16-1.26c6.62-3.72 13.14-8.06 21.19-3.76.15.08.41 0 1.05-.1.21-4.56.53-9.18.61-13.82.34-19.55.59-39.1.92-58.64.1-6.1.24-12.2.37-18.3H17.08V142.3h117.66q-1.05-40.26-2.12-80.52c-.38-14.41-.7-28.83-1.17-43.24-.08-2.46.58-3.4 3.16-3.46 13.35-.31 26.69-.79 40-1.19q44-1.33 88.07-2.64 29.94-.9 59.89-1.85c8.54-.26 17.09-.42 25.62-.77 2.34-.1 3.21.51 3.19 3-.11 15.36-.1 30.72-.1 46.09 0 11.85.11 23.69 0 35.54 0 3 1 3.66 3.82 3.24 5.47-.84 11-1.4 16.65-2.09a16.5 16.5 0 01.38 2.08c.33 9.69.69 19.38.93 29.07a53.49 53.49 0 01-.53 6.28q-.41 4.21-.85 8.42a11.33 11.33 0 01-.3 2.07h123.54zM351.81 123.36c.69 7-1 13.16-3.89 18.95h4.49c.64-.94 1.28-1.89 1.89-2.84s1.48-2.32 1.38-3.41c-.49-5.27-1.27-10.51-1.95-15.75l-1.16-.13c-.27 1.07-.86 2.17-.76 3.2M36.5 319.1h439V161.73h-439z" fill="#0093d3"/><path id="now" d="M126.47 187.67h28.85v105.49h-28.13L99.22 255c-5.83-7.87-10.93-15-16.17-22.59l-.29.15c.15 8.89.29 17.92.29 26.81v33.8H54.2v-105.5h28.12l28 38.17c5.83 7.87 10.93 15 16.17 22.58l.29-.15c-.15-8.89-.29-17.92-.29-26.81zm98.2-1.6c31.77 0 56.38 23.89 56.38 54.35s-24.62 54.35-56.38 54.35-56.38-23.9-56.38-54.35 24.62-54.35 56.38-54.35m0 81.74c14.86 0 26.37-12.09 26.37-27.39S239.53 213 224.67 213s-26.37 12.09-26.37 27.39 11.51 27.39 26.37 27.39m182.71-80.13l-10.49 36.72c-2.62 9.18-5.24 18.65-7.72 28h-.29c-2.33-9-5-18.36-7.58-27.54l-10.63-37.15h-22L337.74 225c-2.62 8.89-5.39 18.65-7.72 27.39h-.29c-2.18-8.74-4.66-18.21-7.14-27.25l-10.2-37.44h-31.47l31.77 105.49h31L351 268.1c2.62-9 5.24-18.5 7.72-27.83h.28c2.33 9.18 4.8 18.07 7.43 27.39l7.29 25.5h31.76l32.2-105.49zm39.54 75.91a15.59 15.59 0 1015.74 15.59 15.64 15.64 0 00-15.74-15.59" fill="#fff"/></svg>